# xmcd
#
# Track frame offsets: 
#        167
#        7225
#        17115
#        28300
#        39990
#        50262
#        64300
#        68800
#        78687
#        90980
#        106932
#        113720
#        131002
#        144347
#        155500
#
# Disc length: 2335 seconds
#
# Revision: 0
# Processed by: cddbd v1.4PL0 Copyright (c) Steve Scherf et al.
# Submitted via: ExactAudioCopy v0.90b4
#
DISCID=c7091d0f
DTITLE=VANDAL X - 13 Basic Hate Tracks
DYEAR=2002
DGENRE=Hardcore
TTITLE0=Fuck 'M All
TTITLE1=Wish You Away
TTITLE2=Mr And Mss X
TTITLE3=She's Killing Me
TTITLE4=Prepare
TTITLE5=Strong
TTITLE6=Punk Under 13
TTITLE7=Run Away Boy
TTITLE8=Pursuit Of Happiness
TTITLE9=First Of Many
TTITLE10=Evil Man Son
TTITLE11=Not You
TTITLE12=For Old Times Sake
TTITLE13=No Way Try
TTITLE14=Homesick Blues
EXTD=VANDAL X is:\nStrings and Voice: Bart T\nDrums and Voice: Dave S\n\nA
EXTD=ll music by VANDAL X\n\nContact: dave@toutpartout.be\n\nWebsite: 
EXTD=www.vandalx.be\n\nBookings: TOUTPARTOUT - Lazerijstraat 87, 3500 
EXTD=Hasselt, Belgium\n
EXTT0=
EXTT1=
EXTT2=
EXTT3=
EXTT4=
EXTT5=
EXTT6=
EXTT7=
EXTT8=
EXTT9=
EXTT10=
EXTT11=
EXTT12=
EXTT13=
EXTT14=
PLAYORDER=
